<svg width="32" height="27" viewBox="0 0 32 27" fill="none" xmlns="http://www.w3.org/2000/svg">
<path d="M5.25 6.34375V26.5H0.75V3.09375H4.92188L5.25 6.34375ZM15.9531 11.3594V11.6875C15.9531 12.9167 15.8073 14.0573 15.5156 15.1094C15.2344 16.1615 14.8177 17.0781 14.2656 17.8594C13.7135 18.6302 13.026 19.2344 12.2031 19.6719C11.3906 20.099 10.4531 20.3125 9.39062 20.3125C8.35938 20.3125 7.46354 20.1042 6.70312 19.6875C5.94271 19.2708 5.30208 18.6875 4.78125 17.9375C4.27083 17.1771 3.85938 16.2969 3.54688 15.2969C3.23438 14.2969 2.99479 13.224 2.82812 12.0781V11.2188C2.99479 9.98958 3.23438 8.86458 3.54688 7.84375C3.85938 6.8125 4.27083 5.92188 4.78125 5.17188C5.30208 4.41146 5.9375 3.82292 6.6875 3.40625C7.44792 2.98958 8.33854 2.78125 9.35938 2.78125C10.4323 2.78125 11.375 2.98438 12.1875 3.39062C13.0104 3.79688 13.6979 4.38021 14.25 5.14062C14.8125 5.90104 15.2344 6.80729 15.5156 7.85938C15.8073 8.91146 15.9531 10.0781 15.9531 11.3594ZM11.4375 11.6875V11.3594C11.4375 10.6406 11.375 9.97917 11.25 9.375C11.1354 8.76042 10.9479 8.22396 10.6875 7.76562C10.4375 7.30729 10.1042 6.95312 9.6875 6.70312C9.28125 6.44271 8.78646 6.3125 8.20312 6.3125C7.58854 6.3125 7.0625 6.41146 6.625 6.60938C6.19792 6.80729 5.84896 7.09375 5.57812 7.46875C5.30729 7.84375 5.10417 8.29167 4.96875 8.8125C4.83333 9.33333 4.75 9.92188 4.71875 10.5781V12.75C4.77083 13.5208 4.91667 14.2135 5.15625 14.8281C5.39583 15.4323 5.76562 15.9115 6.26562 16.2656C6.76562 16.6198 7.42188 16.7969 8.23438 16.7969C8.82812 16.7969 9.32812 16.6667 9.73438 16.4062C10.1406 16.1354 10.4688 15.7656 10.7188 15.2969C10.9792 14.8281 11.1615 14.2865 11.2656 13.6719C11.3802 13.0573 11.4375 12.3958 11.4375 11.6875Z" fill="white"/>
<path d="M26.7344 20.3125V0H31.2656V24H27.1875L26.7344 20.3125ZM16.0469 15.75V15.4219C16.0469 14.1302 16.1927 12.9583 16.4844 11.9062C16.776 10.8438 17.2031 9.93229 17.7656 9.17188C18.3281 8.41146 19.0208 7.82292 19.8438 7.40625C20.6667 6.98958 21.6042 6.78125 22.6562 6.78125C23.6458 6.78125 24.5104 6.98958 25.25 7.40625C26 7.82292 26.6354 8.41667 27.1562 9.1875C27.6875 9.94792 28.1146 10.849 28.4375 11.8906C28.7604 12.9219 28.9948 14.0521 29.1406 15.2812V16C28.9948 17.1771 28.7604 18.2708 28.4375 19.2812C28.1146 20.2917 27.6875 21.1771 27.1562 21.9375C26.6354 22.6875 26 23.2708 25.25 23.6875C24.5 24.1042 23.625 24.3125 22.625 24.3125C21.5729 24.3125 20.6354 24.099 19.8125 23.6719C19 23.2448 18.3125 22.6458 17.75 21.875C17.1979 21.1042 16.776 20.1979 16.4844 19.1562C16.1927 18.1146 16.0469 16.9792 16.0469 15.75ZM20.5469 15.4219V15.75C20.5469 16.4479 20.599 17.099 20.7031 17.7031C20.8177 18.3073 21 18.8438 21.25 19.3125C21.5104 19.7708 21.8438 20.1302 22.25 20.3906C22.6667 20.6406 23.1719 20.7656 23.7656 20.7656C24.5365 20.7656 25.1719 20.5938 25.6719 20.25C26.1719 19.8958 26.5521 19.4115 26.8125 18.7969C27.0833 18.1823 27.2396 17.474 27.2812 16.6719V14.625C27.25 13.9688 27.1562 13.3802 27 12.8594C26.8542 12.3281 26.6354 11.875 26.3438 11.5C26.0625 11.125 25.7083 10.8333 25.2812 10.625C24.8646 10.4167 24.3698 10.3125 23.7969 10.3125C23.2135 10.3125 22.7135 10.4479 22.2969 10.7188C21.8802 10.9792 21.5417 11.3385 21.2812 11.7969C21.0312 12.2552 20.8438 12.7969 20.7188 13.4219C20.6042 14.0365 20.5469 14.7031 20.5469 15.4219Z" fill="#61E5FF"/>
</svg>
