<svg width="134" height="31" viewBox="0 0 134 31" fill="none" xmlns="http://www.w3.org/2000/svg">
<path d="M5.25 10.3438V30.5H0.75V7.09375H4.92188L5.25 10.3438ZM15.9531 15.3594V15.6875C15.9531 16.9167 15.8073 18.0573 15.5156 19.1094C15.2344 20.1615 14.8177 21.0781 14.2656 21.8594C13.7135 22.6302 13.026 23.2344 12.2031 23.6719C11.3906 24.099 10.4531 24.3125 9.39062 24.3125C8.35938 24.3125 7.46354 24.1042 6.70312 23.6875C5.94271 23.2708 5.30208 22.6875 4.78125 21.9375C4.27083 21.1771 3.85938 20.2969 3.54688 19.2969C3.23438 18.2969 2.99479 17.224 2.82812 16.0781V15.2188C2.99479 13.9896 3.23438 12.8646 3.54688 11.8438C3.85938 10.8125 4.27083 9.92188 4.78125 9.17188C5.30208 8.41146 5.9375 7.82292 6.6875 7.40625C7.44792 6.98958 8.33854 6.78125 9.35938 6.78125C10.4323 6.78125 11.375 6.98438 12.1875 7.39062C13.0104 7.79688 13.6979 8.38021 14.25 9.14062C14.8125 9.90104 15.2344 10.8073 15.5156 11.8594C15.8073 12.9115 15.9531 14.0781 15.9531 15.3594ZM11.4375 15.6875V15.3594C11.4375 14.6406 11.375 13.9792 11.25 13.375C11.1354 12.7604 10.9479 12.224 10.6875 11.7656C10.4375 11.3073 10.1042 10.9531 9.6875 10.7031C9.28125 10.4427 8.78646 10.3125 8.20312 10.3125C7.58854 10.3125 7.0625 10.4115 6.625 10.6094C6.19792 10.8073 5.84896 11.0938 5.57812 11.4688C5.30729 11.8438 5.10417 12.2917 4.96875 12.8125C4.83333 13.3333 4.75 13.9219 4.71875 14.5781V16.75C4.77083 17.5208 4.91667 18.2135 5.15625 18.8281C5.39583 19.4323 5.76562 19.9115 6.26562 20.2656C6.76562 20.6198 7.42188 20.7969 8.23438 20.7969C8.82812 20.7969 9.32812 20.6667 9.73438 20.4062C10.1406 20.1354 10.4688 19.7656 10.7188 19.2969C10.9792 18.8281 11.1615 18.2865 11.2656 17.6719C11.3802 17.0573 11.4375 16.3958 11.4375 15.6875ZM23.25 10.7812V24H18.75V7.09375H22.9844L23.25 10.7812ZM28.3438 6.98438L28.2656 11.1562C28.0469 11.125 27.7812 11.099 27.4688 11.0781C27.1667 11.0469 26.8906 11.0312 26.6406 11.0312C26.0052 11.0312 25.4531 11.1146 24.9844 11.2812C24.526 11.4375 24.1406 11.6719 23.8281 11.9844C23.526 12.2969 23.2969 12.6771 23.1406 13.125C22.9948 13.5729 22.9115 14.0833 22.8906 14.6562L21.9844 14.375C21.9844 13.2812 22.0938 12.276 22.3125 11.3594C22.5312 10.4323 22.849 9.625 23.2656 8.9375C23.6927 8.25 24.2135 7.71875 24.8281 7.34375C25.4427 6.96875 26.1458 6.78125 26.9375 6.78125C27.1875 6.78125 27.4427 6.80208 27.7031 6.84375C27.9635 6.875 28.1771 6.92188 28.3438 6.98438ZM35.2188 7.09375V24H30.7031V7.09375H35.2188ZM30.4219 2.6875C30.4219 2.03125 30.651 1.48958 31.1094 1.0625C31.5677 0.635417 32.1823 0.421875 32.9531 0.421875C33.7135 0.421875 34.3229 0.635417 34.7812 1.0625C35.25 1.48958 35.4844 2.03125 35.4844 2.6875C35.4844 3.34375 35.25 3.88542 34.7812 4.3125C34.3229 4.73958 33.7135 4.95312 32.9531 4.95312C32.1823 4.95312 31.5677 4.73958 31.1094 4.3125C30.651 3.88542 30.4219 3.34375 30.4219 2.6875ZM46.7188 24.3125C45.4062 24.3125 44.2292 24.1042 43.1875 23.6875C42.1458 23.2604 41.2604 22.6719 40.5312 21.9219C39.8125 21.1719 39.2604 20.3021 38.875 19.3125C38.4896 18.3125 38.2969 17.25 38.2969 16.125V15.5C38.2969 14.2188 38.4792 13.0469 38.8438 11.9844C39.2083 10.9219 39.7292 10 40.4062 9.21875C41.0938 8.4375 41.9271 7.83854 42.9062 7.42188C43.8854 6.99479 44.9896 6.78125 46.2188 6.78125C47.4167 6.78125 48.4792 6.97917 49.4062 7.375C50.3333 7.77083 51.1094 8.33333 51.7344 9.0625C52.3698 9.79167 52.849 10.6667 53.1719 11.6875C53.4948 12.6979 53.6562 13.8229 53.6562 15.0625V16.9375H40.2188V13.9375H49.2344V13.5938C49.2344 12.9688 49.1198 12.4115 48.8906 11.9219C48.6719 11.4219 48.3385 11.026 47.8906 10.7344C47.4427 10.4427 46.8698 10.2969 46.1719 10.2969C45.5781 10.2969 45.0677 10.4271 44.6406 10.6875C44.2135 10.9479 43.8646 11.3125 43.5938 11.7812C43.3333 12.25 43.1354 12.8021 43 13.4375C42.875 14.0625 42.8125 14.75 42.8125 15.5V16.125C42.8125 16.8021 42.9062 17.4271 43.0938 18C43.2917 18.5729 43.5677 19.0677 43.9219 19.4844C44.2865 19.901 44.724 20.224 45.2344 20.4531C45.7552 20.6823 46.3438 20.7969 47 20.7969C47.8125 20.7969 48.5677 20.6406 49.2656 20.3281C49.974 20.0052 50.5833 19.5208 51.0938 18.875L53.2812 21.25C52.9271 21.7604 52.4427 22.25 51.8281 22.7188C51.224 23.1875 50.4948 23.5729 49.6406 23.875C48.7865 24.1667 47.8125 24.3125 46.7188 24.3125ZM64.5 7.09375V10.2812H54.6562V7.09375H64.5ZM57.0938 2.92188H61.5938V18.9062C61.5938 19.3958 61.6562 19.7708 61.7812 20.0312C61.9167 20.2917 62.1146 20.474 62.375 20.5781C62.6354 20.6719 62.9635 20.7188 63.3594 20.7188C63.6406 20.7188 63.8906 20.7083 64.1094 20.6875C64.3385 20.6562 64.5312 20.625 64.6875 20.5938L64.7031 23.9062C64.3177 24.0312 63.901 24.1302 63.4531 24.2031C63.0052 24.276 62.5104 24.3125 61.9688 24.3125C60.9792 24.3125 60.1146 24.151 59.375 23.8281C58.6458 23.4948 58.0833 22.9635 57.6875 22.2344C57.2917 21.5052 57.0938 20.5469 57.0938 19.3594V2.92188ZM65.9375 15.7188V15.3906C65.9375 14.151 66.1146 13.0104 66.4688 11.9688C66.8229 10.9167 67.3385 10.0052 68.0156 9.23438C68.6927 8.46354 69.526 7.86458 70.5156 7.4375C71.5052 7 72.6406 6.78125 73.9219 6.78125C75.2031 6.78125 76.3438 7 77.3438 7.4375C78.3438 7.86458 79.1823 8.46354 79.8594 9.23438C80.5469 10.0052 81.0677 10.9167 81.4219 11.9688C81.776 13.0104 81.9531 14.151 81.9531 15.3906V15.7188C81.9531 16.9479 81.776 18.0885 81.4219 19.1406C81.0677 20.1823 80.5469 21.0938 79.8594 21.875C79.1823 22.6458 78.349 23.2448 77.3594 23.6719C76.3698 24.099 75.2344 24.3125 73.9531 24.3125C72.6719 24.3125 71.5312 24.099 70.5312 23.6719C69.5417 23.2448 68.7031 22.6458 68.0156 21.875C67.3385 21.0938 66.8229 20.1823 66.4688 19.1406C66.1146 18.0885 65.9375 16.9479 65.9375 15.7188ZM70.4375 15.3906V15.7188C70.4375 16.4271 70.5 17.0885 70.625 17.7031C70.75 18.3177 70.9479 18.8594 71.2188 19.3281C71.5 19.7865 71.8646 20.1458 72.3125 20.4062C72.7604 20.6667 73.3073 20.7969 73.9531 20.7969C74.5781 20.7969 75.1146 20.6667 75.5625 20.4062C76.0104 20.1458 76.3698 19.7865 76.6406 19.3281C76.9115 18.8594 77.1094 18.3177 77.2344 17.7031C77.3698 17.0885 77.4375 16.4271 77.4375 15.7188V15.3906C77.4375 14.7031 77.3698 14.0573 77.2344 13.4531C77.1094 12.8385 76.9062 12.2969 76.625 11.8281C76.3542 11.349 75.9948 10.974 75.5469 10.7031C75.099 10.4323 74.5573 10.2969 73.9219 10.2969C73.2865 10.2969 72.7448 10.4323 72.2969 10.7031C71.8594 10.974 71.5 11.349 71.2188 11.8281C70.9479 12.2969 70.75 12.8385 70.625 13.4531C70.5 14.0573 70.4375 14.7031 70.4375 15.3906Z" fill="white"/>
<path d="M93.7344 20.3125V0H98.2656V24H94.1875L93.7344 20.3125ZM83.0469 15.75V15.4219C83.0469 14.1302 83.1927 12.9583 83.4844 11.9062C83.776 10.8438 84.2031 9.93229 84.7656 9.17188C85.3281 8.41146 86.0208 7.82292 86.8438 7.40625C87.6667 6.98958 88.6042 6.78125 89.6562 6.78125C90.6458 6.78125 91.5104 6.98958 92.25 7.40625C93 7.82292 93.6354 8.41667 94.1562 9.1875C94.6875 9.94792 95.1146 10.849 95.4375 11.8906C95.7604 12.9219 95.9948 14.0521 96.1406 15.2812V16C95.9948 17.1771 95.7604 18.2708 95.4375 19.2812C95.1146 20.2917 94.6875 21.1771 94.1562 21.9375C93.6354 22.6875 93 23.2708 92.25 23.6875C91.5 24.1042 90.625 24.3125 89.625 24.3125C88.5729 24.3125 87.6354 24.099 86.8125 23.6719C86 23.2448 85.3125 22.6458 84.75 21.875C84.1979 21.1042 83.776 20.1979 83.4844 19.1562C83.1927 18.1146 83.0469 16.9792 83.0469 15.75ZM87.5469 15.4219V15.75C87.5469 16.4479 87.599 17.099 87.7031 17.7031C87.8177 18.3073 88 18.8438 88.25 19.3125C88.5104 19.7708 88.8438 20.1302 89.25 20.3906C89.6667 20.6406 90.1719 20.7656 90.7656 20.7656C91.5365 20.7656 92.1719 20.5938 92.6719 20.25C93.1719 19.8958 93.5521 19.4115 93.8125 18.7969C94.0833 18.1823 94.2396 17.474 94.2812 16.6719V14.625C94.25 13.9688 94.1562 13.3802 94 12.8594C93.8542 12.3281 93.6354 11.875 93.3438 11.5C93.0625 11.125 92.7083 10.8333 92.2812 10.625C91.8646 10.4167 91.3698 10.3125 90.7969 10.3125C90.2135 10.3125 89.7135 10.4479 89.2969 10.7188C88.8802 10.9792 88.5417 11.3385 88.2812 11.7969C88.0312 12.2552 87.8438 12.7969 87.7188 13.4219C87.6042 14.0365 87.5469 14.7031 87.5469 15.4219ZM109.562 24.3125C108.25 24.3125 107.073 24.1042 106.031 23.6875C104.99 23.2604 104.104 22.6719 103.375 21.9219C102.656 21.1719 102.104 20.3021 101.719 19.3125C101.333 18.3125 101.141 17.25 101.141 16.125V15.5C101.141 14.2188 101.323 13.0469 101.688 11.9844C102.052 10.9219 102.573 10 103.25 9.21875C103.938 8.4375 104.771 7.83854 105.75 7.42188C106.729 6.99479 107.833 6.78125 109.062 6.78125C110.26 6.78125 111.323 6.97917 112.25 7.375C113.177 7.77083 113.953 8.33333 114.578 9.0625C115.214 9.79167 115.693 10.6667 116.016 11.6875C116.339 12.6979 116.5 13.8229 116.5 15.0625V16.9375H103.062V13.9375H112.078V13.5938C112.078 12.9688 111.964 12.4115 111.734 11.9219C111.516 11.4219 111.182 11.026 110.734 10.7344C110.286 10.4427 109.714 10.2969 109.016 10.2969C108.422 10.2969 107.911 10.4271 107.484 10.6875C107.057 10.9479 106.708 11.3125 106.438 11.7812C106.177 12.25 105.979 12.8021 105.844 13.4375C105.719 14.0625 105.656 14.75 105.656 15.5V16.125C105.656 16.8021 105.75 17.4271 105.938 18C106.135 18.5729 106.411 19.0677 106.766 19.4844C107.13 19.901 107.568 20.224 108.078 20.4531C108.599 20.6823 109.188 20.7969 109.844 20.7969C110.656 20.7969 111.411 20.6406 112.109 20.3281C112.818 20.0052 113.427 19.5208 113.938 18.875L116.125 21.25C115.771 21.7604 115.286 22.25 114.672 22.7188C114.068 23.1875 113.339 23.5729 112.484 23.875C111.63 24.1667 110.656 24.3125 109.562 24.3125ZM124.594 20.7188L128.344 7.09375H133.047L127.344 24H124.5L124.594 20.7188ZM122.016 7.09375L125.781 20.7344L125.859 24H123L117.297 7.09375H122.016Z" fill="#61E5FF"/>
</svg>
